# xmcd
#
# Track frame offsets:
#	183
#	35808
#	80883
#	107433
#	134283
#	162933
#	187908
#	203508
#
# Disc length: 3049 seconds
#
# Revision: 4
# Processed by: cddbd v1.5.2PL0 Copyright (c) Steve Scherf et al.
# Submitted via: audiograbber 1.83.01
#
DISCID=640be708
DTITLE=Keef Hartley Band - Halfbreed
DYEAR=1969
DGENRE=Blues
TTITLE0=Sacked  - Hearts of Flowers - Confusion Theme - The Halfbreed
TTITLE1=Born To Die
TTITLE2=Sinnin' For You
TTITLE3=Leavin' Trunk
TTITLE4=Just To Cry
TTITLE5=Too Much Thinking
TTITLE6=Leave It 'Til Morning
TTITLE7=Think It Over - Too Much To Take
EXTD=YEAR: 1969,   2003 Walhalla Records
EXTT0=Introducing\nHearts and Flowers\nConfusion Theme\nThe Halfbreed\n
EXTT1=
EXTT2=
EXTT3=
EXTT4=
EXTT5=
EXTT6=
EXTT7=
PLAYORDER=
